<?xml version="1.0" encoding="UTF-8"?>
<svg id="_图层_1" data-name="图层 1" xmlns="http://www.w3.org/2000/svg" version="1.1" viewBox="0 0 228 52.8">
  <defs>
    <style>
      .cls-1 {
        fill: #f3a45d;
      }

      .cls-1, .cls-2 {
        stroke-width: 0px;
      }

      .cls-2 {
        fill: #fff;
      }
    </style>
  </defs>
  <g id="svg_4" data-name="svg 4">
    <g id="svg_5" data-name="svg 5">
      <g id="svg_42" data-name="svg 42">
        <g id="svg_16" data-name="svg 16">
          <g id="svg_17" data-name="svg 17">
            <path id="svg_18" data-name="svg 18" class="cls-2" d="M93.9,17.6h0c4.4,0,7.7,1.3,9.8,3.8h0c1.9,2.3,2.9,5.3,2.9,8.8h0c0,3.8-1.2,6.8-3.7,9h0c-2.2,2-5.3,3.1-9.2,3.1h0c-4,0-7.2-1.2-9.4-3.5h0c-2.1-2.1-3.2-5.1-3.2-9.1h0c0-3.4,1-6.2,3-8.4h0c2.2-2.5,5.5-3.8,9.7-3.8ZM94,22.7h0c-4,0-6,2.5-6,7.4h0c0,2,.3,3.5,1,4.6h0c1.1,1.8,2.8,2.7,5,2.7h0c3.9,0,5.9-2.4,5.9-7.3h0c0-4.8-2-7.2-5.9-7.3Z"/>
          </g>
        </g>
        <g id="svg_19" data-name="svg 19">
          <g id="svg_20" data-name="svg 20">
            <path id="svg_21" data-name="svg 21" class="cls-2" d="M118.3,18h14.1v5.1h-11.7c-1.4,0-2.2,0-2.6.2h0c-.8.3-1.1.9-1.1,1.9h0c0,.9.4,1.5,1.1,2h0c.4.3,1.5.4,3.2.4h3.9c2.5,0,4.5.5,5.9,1.6h0c1.6,1.2,2.4,2.9,2.4,5.2h0c0,1.7-.5,3.3-1.5,4.8h0c-.7,1.1-1.6,1.9-2.6,2.3-1,.4-2.8.5-5.2.5h-13.7v-5.1h11.8c1.4,0,2.4,0,3,0h0c1.2-.1,1.8-.8,1.8-2h0c0-1-.4-1.7-1.2-2h0c-.4-.2-1.3-.3-2.9-.3h-4c-1.6,0-2.8,0-3.6-.3-.8-.2-1.6-.6-2.3-1.1h0c-.9-.6-1.6-1.5-2.1-2.6-.5-1.1-.8-2.3-.8-3.5h0c0-2.4.9-4.3,2.6-5.7h0c1.1-.9,2.9-1.3,5.5-1.3h0Z"/>
          </g>
        </g>
        <g id="svg_22" data-name="svg 22">
          <g id="svg_23" data-name="svg 23">
            <path id="svg_24" data-name="svg 24" class="cls-2" d="M137.2,9.1h6.6v18.4l8.8-9.5h7.4l-9.4,9.5h1.8c2.3,0,3.9.7,4.8,2,.9,1.4,1.3,3.7,1.3,7.2h0v5.3h-6.6v-5.6c0-1.5-.2-2.5-.7-3-.5-.5-1.5-.8-2.9-.8h-4.5v9.4h-6.6s0-32.9,0-32.9Z"/>
          </g>
        </g>
        <g id="svg_25" data-name="svg 25">
          <g id="svg_26" data-name="svg 26">
            <path id="svg_27" data-name="svg 27" class="cls-2" d="M163.2,42v-24h6.6v24h-6.6ZM169.8,15.5h-6.6v-6.4h6.6v6.4Z"/>
          </g>
        </g>
        <g id="svg_28" data-name="svg 28">
          <g id="svg_29" data-name="svg 29">
            <path id="svg_30" data-name="svg 30" class="cls-2" d="M173.2,42v-24h12.7c1.9,0,3.4.1,4.4.4s1.9.8,2.7,1.5h0c1.7,1.5,2.5,4,2.5,7.3h0v14.8h-6.6v-15.6c0-1.2-.3-2-.8-2.6-.5-.5-1.4-.8-2.6-.8h-5.7v18.9s-6.6,0-6.6,0Z"/>
          </g>
        </g>
        <g id="svg_31" data-name="svg 31">
          <g id="svg_32" data-name="svg 32">
            <path id="svg_33" data-name="svg 33" class="cls-2" d="M207.3,18h14.1v5.1h-11.7c-1.4,0-2.2,0-2.6.2h0c-.8.3-1.1.9-1.1,1.9h0c0,.9.4,1.5,1.1,2h0c.4.3,1.5.4,3.2.4h3.9c2.5,0,4.5.5,5.9,1.6h0c1.6,1.2,2.4,2.9,2.4,5.2h0c0,1.7-.5,3.3-1.5,4.8h0c-.7,1.1-1.6,1.9-2.6,2.3-1,.4-2.8.5-5.2.5h-13.7v-5.1h11.8c1.4,0,2.4,0,3,0h0c1.2-.1,1.8-.8,1.8-2h0c0-1-.4-1.7-1.2-2h0c-.4-.2-1.3-.3-2.9-.3h-4c-1.6,0-2.8,0-3.6-.3-.8-.2-1.6-.6-2.3-1.1h0c-.9-.6-1.6-1.5-2.1-2.6-.5-1.1-.8-2.3-.8-3.5h0c0-2.4.9-4.3,2.6-5.7h0c1.1-.9,2.9-1.3,5.5-1.3h0Z"/>
          </g>
        </g>
        <g id="svg_41" data-name="svg 41">
          <g id="svg_40" data-name="svg 40">
            <path id="svg_39" data-name="svg 39" class="cls-2" d="M65.4,17.3h0c4.4,0,7.7,1.3,9.8,3.8h0c1.9,2.3,2.9,5.3,2.9,8.8h0c0,3.8-1.2,6.7-3.7,9h0c-2.2,2-5.3,3.1-9.2,3.1h0c-4,0-7.2-1.2-9.4-3.5h0c-2.1-2.1-3.2-5.1-3.2-9.1h0c0-3.4,1-6.2,3-8.4h0c2.2-2.5,5.5-3.8,9.7-3.8ZM65.5,22.3h0c-4,0-6,2.5-6,7.4h0c0,2,.3,3.5,1,4.6h0c1.1,1.8,2.8,2.7,5,2.7h0c3.9,0,5.9-2.5,5.9-7.3h0c0-4.8-2-7.2-5.9-7.3Z"/>
          </g>
        </g>
      </g>
    </g>
  </g>
  <g>
    <path class="cls-1" d="M37.2,21l7.7-7.7.9.9-7.7,7.7s-.9-.9-.9-.9ZM36.4,18.3l7.1-7.1.9.9-7.1,7.1-.9-.9ZM35.2,16l6.7-6.7.9.9-6.7,6.7-.9-.9ZM33.7,14.2l6.5-6.5.9.9-6.5,6.5-.9-.9ZM31.7,12.7l6.4-6.4.9.9-6.4,6.4-.9-.9ZM12.5,44.1l6.7-6.7.9.9-6.7,6.7s-.9-.9-.9-.9ZM10.7,42.8l6.4-6.4.9.9-6.4,6.4s-.9-.9-.9-.9ZM8.9,41.1l6.7-6.7.9.9-6.7,6.7-.9-.9ZM7.2,39.3l7.1-7.1.9.9-7.1,7.1s-.9-.9-.9-.9ZM5.9,37.3l7.7-7.7.9.9-7.7,7.7s-.9-.9-.9-.9Z"/>
    <path class="cls-1" d="M45.8,14.6l-8,8c0,1.1.2,2.1.2,3.2,0,2-.3,3.9-.9,5.9-.5,1.7-1.4,3.2-2.4,4.4s-2.4,2.1-3.9,2.7c-1.7.6-3.5.9-5.1.9s-2.9-.2-4.4-.6l-6.7,6.7c.6.3,1.1.5,1.7.8,3,1.2,6.2,1.8,9.4,1.7,3.2,0,6.4-.6,9.4-1.7,5.4-2.1,9.7-6.5,11.8-12,1.1-2.9,1.7-5.7,1.7-8.8s-.9-7.7-2.7-11l.2-.2Z"/>
    <path class="cls-1" d="M13.4,25.7c0-2,.3-3.9.9-5.9.5-1.7,1.4-3.2,2.4-4.4s2.4-2.1,3.9-2.7c1.7-.6,3.5-1.1,5.3-.9,1.5,0,2.9.2,4.2.6l6.7-6.7c-.5-.3-1.1-.5-1.5-.8-3.2-1.1-6.4-1.7-9.5-1.7s-6.4.6-9.4,1.7c-2.7,1.1-5.1,2.7-7.3,4.7-2,2-3.6,4.4-4.7,7.1-1.1,2.9-1.5,5.9-1.5,8.9s.5,6.1,1.7,8.8c.3.8.6,1.5,1.1,2.3l7.9-8c0-1.1-.2-2.1-.2-3.2v.2Z"/>
  </g>
</svg>