<?xml version="1.0" encoding="UTF-8"?>
<svg id="_图层_1" data-name="图层 1" xmlns="http://www.w3.org/2000/svg" viewBox="0 0 219.57 44.96">
  <defs>
    <style>
      .cls-1 {
        fill: #f3a45d;
      }

      .cls-1, .cls-2 {
        stroke-width: 0px;
      }

      .cls-2 {
        fill: #fff;
      }
    </style>
  </defs>
  <g id="svg_4" data-name="svg 4">
    <g id="svg_5" data-name="svg 5">
      <g id="svg_42" data-name="svg 42">
        <g id="svg_16" data-name="svg 16">
          <g id="svg_17" data-name="svg 17">
            <path id="svg_18" data-name="svg 18" class="cls-2" d="M90.91,14.36h0c4.45,0,7.72,1.28,9.82,3.85h0c1.95,2.33,2.92,5.28,2.92,8.83h0c0,3.75-1.22,6.75-3.66,8.99h0c-2.23,2.04-5.29,3.06-9.18,3.06h0c-4.01,0-7.15-1.15-9.42-3.46h0c-2.11-2.07-3.16-5.1-3.16-9.08h0c0-3.36,1-6.16,3.01-8.39h0c2.24-2.5,5.46-3.77,9.67-3.8ZM90.96,19.39h0c-3.98,0-5.97,2.47-5.97,7.41h0c0,2.01.33,3.54.99,4.59h0c1.09,1.77,2.76,2.66,5.03,2.66h0c3.92,0,5.88-2.45,5.88-7.35h0c0-4.81-1.98-7.24-5.93-7.31Z"/>
          </g>
        </g>
        <g id="svg_19" data-name="svg 19">
          <g id="svg_20" data-name="svg 20">
            <path id="svg_21" data-name="svg 21" class="cls-2" d="M115.32,14.7h14.12v5.14h-11.7c-1.35,0-2.21.06-2.57.19h0c-.75.27-1.13.91-1.13,1.93h0c0,.85.36,1.51,1.08,1.97h0c.39.27,1.46.4,3.21.4h3.9c2.5,0,4.47.53,5.92,1.58h0c1.61,1.18,2.42,2.92,2.42,5.23h0c0,1.75-.49,3.34-1.48,4.79h0c-.73,1.15-1.61,1.9-2.64,2.27-1.04.36-2.78.54-5.21.54h-13.67v-5.13h11.8c1.45,0,2.43-.02,2.96-.05h0c1.19-.13,1.78-.81,1.78-2.03h0c0-.99-.4-1.66-1.19-2.02h0c-.39-.2-1.35-.3-2.86-.3h-4c-1.58,0-2.79-.1-3.63-.29-.84-.2-1.62-.56-2.34-1.09h0c-.89-.63-1.59-1.49-2.1-2.59-.51-1.1-.76-2.28-.76-3.53h0c0-2.4.87-4.31,2.61-5.72h0c1.05-.86,2.88-1.29,5.48-1.29h0Z"/>
          </g>
        </g>
        <g id="svg_22" data-name="svg 22">
          <g id="svg_23" data-name="svg 23">
            <path id="svg_24" data-name="svg 24" class="cls-2" d="M134.23,5.82h6.61v18.41l8.84-9.53h7.4l-9.38,9.53h1.78c2.3,0,3.9.67,4.79,2.02.89,1.35,1.33,3.74,1.33,7.16h0v5.33h-6.61v-5.63c0-1.51-.25-2.52-.74-3.03-.5-.51-1.47-.77-2.92-.77h-4.49v9.43h-6.61s0-32.92,0-32.92Z"/>
          </g>
        </g>
        <g id="svg_25" data-name="svg 25">
          <g id="svg_26" data-name="svg 26">
            <path id="svg_27" data-name="svg 27" class="cls-2" d="M160.23,38.74V14.7h6.61v24.04h-6.61ZM166.84,12.24h-6.61v-6.42h6.61v6.42Z"/>
          </g>
        </g>
        <g id="svg_28" data-name="svg 28">
          <g id="svg_29" data-name="svg 29">
            <path id="svg_30" data-name="svg 30" class="cls-2" d="M170.23,38.74V14.7h12.73c1.91,0,3.36.14,4.37.42s1.92.78,2.74,1.51h0c1.68,1.55,2.52,3.98,2.52,7.3h0v14.81h-6.62v-15.55c0-1.18-.26-2.03-.79-2.56-.53-.53-1.4-.79-2.61-.79h-5.73v18.9s-6.61,0-6.61,0Z"/>
          </g>
        </g>
        <g id="svg_31" data-name="svg 31">
          <g id="svg_32" data-name="svg 32">
            <path id="svg_33" data-name="svg 33" class="cls-2" d="M204.32,14.7h14.12v5.14h-11.7c-1.35,0-2.21.06-2.57.19h0c-.75.27-1.13.91-1.13,1.93h0c0,.85.36,1.51,1.08,1.97h0c.39.27,1.46.4,3.21.4h3.9c2.5,0,4.47.53,5.92,1.58h0c1.61,1.18,2.42,2.92,2.42,5.23h0c0,1.75-.49,3.34-1.48,4.79h0c-.73,1.15-1.61,1.9-2.64,2.27-1.04.36-2.78.54-5.21.54h-13.67v-5.13h11.8c1.45,0,2.43-.02,2.96-.05h0c1.19-.13,1.78-.81,1.78-2.03h0c0-.99-.4-1.66-1.19-2.02h0c-.39-.2-1.35-.3-2.86-.3h-4c-1.58,0-2.79-.1-3.63-.29-.84-.2-1.62-.56-2.34-1.09h0c-.89-.63-1.59-1.49-2.1-2.59-.51-1.1-.76-2.28-.76-3.53h0c0-2.4.87-4.31,2.61-5.72h0c1.05-.86,2.88-1.29,5.48-1.29h0Z"/>
          </g>
        </g>
        <g id="svg_41" data-name="svg 41">
          <g id="svg_40" data-name="svg 40">
            <path id="svg_39" data-name="svg 39" class="cls-2" d="M62.42,13.98h0c4.45,0,7.72,1.28,9.82,3.85h0c1.95,2.33,2.92,5.28,2.92,8.83h0c0,3.75-1.22,6.75-3.66,8.99h0c-2.23,2.04-5.29,3.06-9.18,3.06h0c-4.01,0-7.15-1.15-9.42-3.46h0c-2.11-2.07-3.16-5.1-3.16-9.08h0c0-3.36,1-6.16,3.01-8.39h0c2.24-2.5,5.46-3.77,9.67-3.8ZM62.47,19.01h0c-3.98,0-5.97,2.47-5.97,7.41h0c0,2.01.33,3.54.99,4.59h0c1.09,1.77,2.76,2.66,5.03,2.66h0c3.92,0,5.88-2.45,5.88-7.35h0c0-4.81-1.98-7.24-5.93-7.31Z"/>
          </g>
        </g>
      </g>
    </g>
  </g>
  <g>
    <path class="cls-1" d="M34.19,17.7l7.72-7.72.91.91-7.72,7.72s-.91-.91-.91-.91ZM33.44,14.98l7.11-7.11.91.91-7.11,7.11-.91-.91ZM32.23,12.71l6.66-6.66.91.91-6.66,6.66-.91-.91ZM30.71,10.89l6.51-6.51.91.91-6.51,6.51-.91-.91ZM28.75,9.38l6.35-6.35.91.91-6.35,6.35-.91-.91ZM9.53,40.85l6.66-6.66.91.91-6.66,6.66s-.91-.91-.91-.91ZM7.72,39.49l6.35-6.35.91.91-6.35,6.35s-.91-.91-.91-.91ZM5.9,37.82l6.66-6.66.91.91-6.66,6.66-.91-.91ZM4.24,36.01l7.11-7.11.91.91-7.11,7.11s-.91-.91-.91-.91ZM2.87,34.04l7.72-7.72.91.91-7.72,7.72s-.91-.91-.91-.91Z"/>
    <path class="cls-1" d="M42.82,11.35l-8.02,8.02c0,1.06.15,2.12.15,3.18,0,1.97-.3,3.93-.91,5.9-.45,1.66-1.36,3.18-2.42,4.39s-2.42,2.12-3.93,2.72c-1.66.61-3.48.91-5.14.91-1.51,0-2.87-.15-4.39-.61l-6.66,6.66c.61.3,1.06.45,1.66.76,3.03,1.21,6.2,1.82,9.38,1.66,3.18,0,6.35-.61,9.38-1.66,5.45-2.12,9.68-6.51,11.8-11.95,1.06-2.87,1.66-5.75,1.66-8.77,0-3.78-.91-7.72-2.72-11.04l.15-.15Z"/>
    <path class="cls-1" d="M10.44,22.39c0-1.97.3-3.93.91-5.9.45-1.66,1.36-3.18,2.42-4.39s2.42-2.12,3.93-2.72c1.66-.61,3.48-1.06,5.3-.91,1.51,0,2.87.15,4.24.61l6.66-6.66c-.45-.3-1.06-.45-1.51-.76-3.18-1.06-6.35-1.66-9.53-1.66s-6.35.61-9.38,1.66c-2.72,1.06-5.14,2.72-7.26,4.69-1.97,1.97-3.63,4.39-4.69,7.11-1.06,2.87-1.51,5.9-1.51,8.93s.45,6.05,1.66,8.77c.3.76.61,1.51,1.06,2.27l7.87-8.02c0-1.06-.15-2.12-.15-3.18v.15Z"/>
  </g>
</svg>