<svg id="Слой_1" data-name="Слой 1" xmlns="http://www.w3.org/2000/svg" viewBox="0 0 989.26 99.53"><defs><style>.cls-1,.cls-2,.cls-3,.cls-4{fill:#7f9cfc;}.cls-2{opacity:0.25;}.cls-3{opacity:0.5;}.cls-4{opacity:0.75;}</style></defs><title>logo</title><path class="cls-1" d="M1.47,98.2v-17H74.18q6.81,0,10.48-3.46a12.13,12.13,0,0,0,3.67-9.21q0-6.27-3.67-9.41T74.18,56H29.62A35,35,0,0,1,17.28,54a26.64,26.64,0,0,1-9.34-5.74,25.12,25.12,0,0,1-5.87-8.74A29,29,0,0,1,0,28.42,30,30,0,0,1,1.93,17.54a23.31,23.31,0,0,1,5.74-8.6,27.2,27.2,0,0,1,9.41-5.67A36.78,36.78,0,0,1,29.89,1.2H99.53v17H29.89q-5.88,0-9.08,3.13T17.61,30q0,5.61,3.27,8.67t8.87,3.07H74.18q14.82,0,22.49,6.94t7.67,21.08a33.47,33.47,0,0,1-1.87,11.34,24.71,24.71,0,0,1-5.6,9,25.71,25.71,0,0,1-9.41,5.93A37.48,37.48,0,0,1,74.18,98.2Z" transform="translate(0 0.13)"/><path class="cls-1" d="M118.88,98.2V1.2h16.94v97Zm79.92,0L144.5,55.5a8,8,0,0,1-2.87-3.4,10.74,10.74,0,0,1-.6-3.67,9.37,9.37,0,0,1,.8-4,10.86,10.86,0,0,1,3.47-3.74L196.66,1.2h26L159.17,48.57,224.68,98.2Z" transform="translate(0 0.13)"/><path class="cls-1" d="M236.56,98.2V1.2H253.5v97Z" transform="translate(0 0.13)"/><path class="cls-1" d="M287,27.22v71H270.85V10.14a11,11,0,0,1,2.33-7.41A7.91,7.91,0,0,1,279.52,0a8.58,8.58,0,0,1,3.6.8,12.63,12.63,0,0,1,3.6,2.67l68.45,67.91V.4h16.14V89.26q0,4.8-2.33,7.47a7.69,7.69,0,0,1-6.07,2.67,10.84,10.84,0,0,1-7.74-3.6Z" transform="translate(0 0.13)"/><path class="cls-1" d="M387.72,98.2v-17h72.72q6.81,0,10.47-3.46a12.09,12.09,0,0,0,3.67-9.21q0-6.27-3.67-9.41T460.44,56H415.88A35.09,35.09,0,0,1,403.53,54a26.59,26.59,0,0,1-9.33-5.74,25.15,25.15,0,0,1-5.88-8.74,29,29,0,0,1-2.06-11.07,30,30,0,0,1,1.93-10.88,23.19,23.19,0,0,1,5.74-8.6,27.1,27.1,0,0,1,9.41-5.67,36.76,36.76,0,0,1,12.8-2.07h69.65v17H416.14q-5.86,0-9.07,3.13T403.87,30q0,5.61,3.27,8.67c2.18,2.05,5.13,3.07,8.87,3.07h44.43q14.81,0,22.48,6.94t7.67,21.08a33.47,33.47,0,0,1-1.86,11.34,24.6,24.6,0,0,1-5.61,9,25.58,25.58,0,0,1-9.4,5.93,37.52,37.52,0,0,1-13.28,2.14Z" transform="translate(0 0.13)"/><path class="cls-1" d="M505,98.2V1.2h71a48.27,48.27,0,0,1,12.88,1.6,29.13,29.13,0,0,1,9.94,4.74,21.26,21.26,0,0,1,6.4,7.87,24.91,24.91,0,0,1,2.27,10.87,27.79,27.79,0,0,1-1.07,8.14,19,19,0,0,1-2.93,5.94,18.11,18.11,0,0,1-4.34,4.14A18.79,18.79,0,0,1,594,47a21.92,21.92,0,0,1,11,7.74q4.26,5.61,4.26,14.15A31.69,31.69,0,0,1,607,80.92a26.19,26.19,0,0,1-6.27,9.27,27.49,27.49,0,0,1-9.87,5.94A38.12,38.12,0,0,1,578,98.2ZM534.22,56V41.76h41.9q7.2,0,10.67-2.67T590.26,30a11.49,11.49,0,0,0-1.47-6.2,9.61,9.61,0,0,0-4.2-3.61,20.66,20.66,0,0,0-6.54-1.66,80.53,80.53,0,0,0-8.47-.4H522V81.39h49.1a49,49,0,0,0,8.4-.67,21.35,21.35,0,0,0,6.67-2.2,11.62,11.62,0,0,0,4.34-3.94,11,11,0,0,0,1.53-6q0-6-3.73-9.27T577.32,56Z" transform="translate(0 0.13)"/><path class="cls-1" d="M725.15,98.2,710.6,73.78H664.71l8-13.74h29.76L680.85,23.75l-44,74.45H617.48L673.25,5.34a12.71,12.71,0,0,1,3.47-4,7.93,7.93,0,0,1,4.8-1.46,7.66,7.66,0,0,1,4.74,1.46,13.49,13.49,0,0,1,3.4,4l55.9,92.86Z" transform="translate(0 0.13)"/><path class="cls-1" d="M787.33,98.2a45.94,45.94,0,0,1-18.75-3.8,46.24,46.24,0,0,1-24.82-26.09,53.46,53.46,0,0,1-3.53-19.61,51.76,51.76,0,0,1,3.53-19.48,43.29,43.29,0,0,1,9.88-15A44.36,44.36,0,0,1,768.58,4.6a50.5,50.5,0,0,1,18.75-3.4h52.56v17H787.33a30.71,30.71,0,0,0-12.08,2.33A28.73,28.73,0,0,0,765.71,27a29.73,29.73,0,0,0-6.27,9.87,34.3,34.3,0,0,0-2.27,12.68,34.86,34.86,0,0,0,2.27,12.67,30.08,30.08,0,0,0,6.27,10.08,28.91,28.91,0,0,0,9.54,6.6,30.05,30.05,0,0,0,12.08,2.4h52.56v17Z" transform="translate(0 0.13)"/><polygon class="cls-2" points="989.26 98.27 959.36 98.27 893.93 48.7 960.1 1.32 987.26 1.27 923.75 48.64 989.26 98.27"/><path class="cls-3" d="M978.1,1.16l-26,0L898,40.74a10.84,10.84,0,0,0-3.47,3.73,9.41,9.41,0,0,0-.8,4,10.78,10.78,0,0,0,.6,3.67,8,8,0,0,0,2.87,3.4l54.3,42.69h25.88l-.08-.06L911.83,48.61,978,1.23Z" transform="translate(0 0.13)"/><path class="cls-4" d="M969,1.16l-26,0L888.9,40.74a10.84,10.84,0,0,0-3.47,3.73,9.41,9.41,0,0,0-.8,4,10.78,10.78,0,0,0,.6,3.67,8,8,0,0,0,2.87,3.4l54.3,42.69h25.88l-.08-.06L902.77,48.61,968.94,1.23Z" transform="translate(0 0.13)"/><path class="cls-1" d="M853.64,1.21v97h16.94v-97ZM960.2,1.12l-26,0L880.06,40.7a10.84,10.84,0,0,0-3.47,3.73,9.4,9.4,0,0,0-.8,4,10.84,10.84,0,0,0,.6,3.68,8,8,0,0,0,2.87,3.4l54.3,42.69h25.88l-.08-.06L893.93,48.57,960.1,1.18Z" transform="translate(0 0.13)"/></svg>