<svg fill="none" height="39" viewBox="0 0 202 39" width="202" xmlns="http://www.w3.org/2000/svg"><path d="m1.5 0-1.5 1v37h2l1 1 .5-1h3l1-2 2 .5 1.5 1.5h11l1.5-2 1.5 2h10.5l1.5-1.5 1 1.5 1.5 1 1.5-1 1.5-1.5 1.5 1.5h6l1-1.5 1.5 1.5h3l1-2 1.5 2h1.5l1 1 1.5-1.5 4 .5 1.1868-1.5 1.8132 1.5 1.5-1.5 2 1.5h4l1.5-1.5c.6667.5 2.1 1.5 2.5 1.5h2.5l1.5-1 1.5 1h9.5l1-1 1 1h6l1-1 2 1h6l2-2 2.5 2h3l1-1.5 1.5 1.5h3.5l1-1 .5 1h2l1-1 1 1h2.5l1-1 1 1h2l1.5-1 1.5 1h7.5l1.5-1 1 1h5.5l2-1 2 2 1.5-1h6l1.5 1 1.5-1h2.5l2-1.5 1.5 1.5h13l1-1.5 1.5 1.5h9.5v-37h-1l-1 1-1-1h-2.5l-1-1h-3.5l-1 1h-3l-1-1h-1.5l-2.5 2-2-2h-2l-2.5 2-1.5-1h-5.5l-1.5-1-1.5 1.5-8.5-.5-3.5.5-2-1.5-2 1-.5-1h-1.5l-2 1h-3.5l-2.5-.5-1.5.5-2.5.5-1-.5h-3l-3.5.5-4-1.5-3 1.5-4-.5h-3l-3-1-1.5 1h-2.5l-4 .5-3-1-3 1-2.5-.5-4.5.5-1.5-.5-1-1-1.5 1-1.5.5-1.5.5-2-1-2 1-2-2h-1l-1.5 2-2-1-2.5.5-4.5-.5-4.5.5-.5-.5h-1.5l-1.5 1h-1.5l-1-1h-2l-1.5 1h-1.5l-1-1h-2l-2 1-2-1h-4.5l-2 1-4.5-1-3.5.5-1-1.5h-3.5l-2.5 1-2.5-1h-2l-2 1-1.5-1-3.5.5-1 .5-5-.5-2 .5z" fill="#fec500"/></svg>