<svg width="21" height="22" viewBox="0 0 21 22" fill="none" xmlns="http://www.w3.org/2000/svg">
<path d="M6.23999 12.1428L10.2533 17.9074C11.0048 18.9868 10.6432 20.4803 9.48136 21.0965C8.50726 21.6131 7.30102 21.3258 6.66445 20.4255L0.816433 12.1547C0.327125 11.4627 0.327126 10.5374 0.816434 9.8454L6.66445 1.57465C7.30103 0.674356 8.50727 0.387018 9.48137 0.903639C10.6432 1.51984 11.0048 3.01333 10.2533 4.09268L6.23999 9.85733C5.76185 10.5441 5.76185 11.456 6.23999 12.1428Z" fill="#FBC300"/>
<path opacity="0.8" d="M15.573 12.1428L19.5863 17.9074C20.3378 18.9868 19.9762 20.4803 18.8144 21.0965C17.8403 21.6131 16.634 21.3258 15.9975 20.4255L10.1494 12.1547C9.66013 11.4627 9.66013 10.5374 10.1494 9.8454L15.9975 1.57465C16.634 0.674356 17.8403 0.387018 18.8144 0.903639C19.9762 1.51984 20.3378 3.01333 19.5863 4.09268L15.573 9.85733C15.0949 10.5441 15.0949 11.456 15.573 12.1428Z" fill="#FBC300"/>
</svg>
