<svg id="svg_1" class="image-svg-svg primary" height="29.672607" width="30.119477" y="10.962985340594292" x="13.30874228212738"><g id="svg_40"><svg id="svg_34" viewBox="-0.0024633873254060745 -0.003215573728084564 58.494422912597656 57.62656784057617"><path id="svg_37" d="M43.888,22.638L53.858,12.668L54.948,13.756L44.977,23.726L43.888,22.638zM42.938,19.21L52.088,10.06L53.184,11.157L44.034,20.307L42.938,19.21zM41.434,16.342L50.039,7.737L51.129,8.826L42.523,17.431L41.434,16.342zM39.388,14.02L47.718,5.691L48.814,6.787L40.484,15.117L39.388,14.02zM36.929,12.108L45.124,3.913L46.22,5.009L38.025,13.204L36.929,12.108zM12.271,52.53L20.742,44.059L21.832,45.148L13.36,53.619L12.271,52.53zM9.806,50.608L18,42.413L19.096,43.509L10.901,51.704L9.806,50.608zM7.48,48.576L16.086,39.97L17.175,41.06L8.569,49.665L7.48,48.576zM5.425,46.255L14.575,37.105L15.67,38.2L6.52,47.35L5.425,46.255zM3.655,43.66L13.491,33.825L14.587,34.921L4.751,44.756L3.655,43.66z" fill="#f3a45d"></path><path id="svg_36" fill="#f3a45d" d="M55,14.55L44.8,24.75A26.78,26.78 0 0 1 45.08,28.75A24.45,24.45 0 0 1 44,36.29A15.87,15.87 0 0 1 40.93,42A13.15,13.15 0 0 1 35.93,45.54A17.3,17.3 0 0 1 29.25,46.75A18.47,18.47 0 0 1 23.67,45.94L15.19,54.42C15.87,54.76 16.56,55.08 17.28,55.42A31.38,31.38 0 0 0 29.28,57.62A31.33,31.33 0 0 0 41.28,55.42A26.9,26.9 0 0 0 56.38,40.1A30.32,30.32 0 0 0 58.49,28.74A29.22,29.22 0 0 0 55,14.55z"></path><path id="svg_35" fill="#f3a45d" d="M13.37,28.74A24.36,24.36 0 0 1 14.45,21.23A15.71,15.71 0 0 1 17.56,15.57A13.38,13.38 0 0 1 22.56,12.01A17.42,17.42 0 0 1 29.3,10.78A17.88,17.88 0 0 1 34.83,11.6L43.28,3.15C42.62,2.82 41.95,2.51 41.28,2.22A31.15,31.15 0 0 0 29.28,0A31.38,31.38 0 0 0 17.28,2.2A27.54,27.54 0 0 0 8.05,8.27A27.09,27.09 0 0 0 2.05,17.38A30.36,30.36 0 0 0 0,28.74A30.32,30.32 0 0 0 2.1,40.1A27.9,27.9 0 0 0 3.45,43L13.64,32.8A28.69,28.69 0 0 1 13.37,28.74z"></path></svg></g></svg>