<svg data-v-fcfa0fb4="" class="upgrade-game-wheel__svg" width="317" height="317" viewBox="0 0 317 317" fill="none" xmlns="http://www.w3.org/2000/svg"><g data-v-fcfa0fb4="" class="wheel-main-circle"><path class="js_fillColor" d="M146.525 80.1617V79.4015L145.692 78.0986C145.551 77.3948 145.399 76.7136 145.242 76.0483C145.117 75.5158 144.988 74.9939 144.86 74.479C149.171 73.8124 153.528 73.4736 157.891 73.4656C162.34 73.466 166.782 73.817 171.176 74.5152L170.984 75.3636C170.847 75.9844 170.715 76.5889 170.587 77.1819L170.38 78.1348L170.126 79.6548V80.415C170.126 80.6013 170.231 80.5779 170.239 80.5951C170.242 80.6048 170.217 80.627 170.126 80.7045C170.025 80.7907 169.908 80.8427 169.802 80.8741L169.743 80.8904C169.71 80.8979 169.68 80.9037 169.653 80.908C169.567 80.9216 169.511 80.9216 169.511 80.9216C168.797 80.7618 168.069 80.677 167.338 80.6683L164.334 80.4512H152.208L149.203 80.6683H147.321C147.14 80.8853 146.886 80.7769 146.706 80.6683C146.525 80.5596 146.525 79.9806 146.525 80.1617Z" fill="#484848" fill-opacity="0.2" data-v-fcfa0fb4=""></path><path class="js_fillColor" d="M205.564 93.5171L205.094 94.1324C205.01 94.2463 204.938 94.3673 204.876 94.4943C204.808 94.6873 204.788 94.8941 204.82 95.0965C204.828 95.1431 204.838 95.1891 204.851 95.2343C204.892 95.3854 204.962 95.5275 205.057 95.6526L209.075 99.272L213.419 103.434L217.618 107.995L221.238 111.976C221.287 112.032 221.351 112.067 221.423 112.087C221.496 112.108 221.576 112.116 221.66 112.117C221.704 112.119 221.749 112.117 221.794 112.116L221.805 112.116H221.83C222.039 112.111 222.236 112.107 222.324 112.23C223.139 111.723 223.914 111.154 224.641 110.528C225.216 110.153 225.777 109.75 226.341 109.345C226.7 109.087 227.061 108.827 227.428 108.574C222.13 101.358 215.743 95.009 208.496 89.7529L206.541 92.5037L205.564 93.5171Z" fill="#484848" fill-opacity="0.2" data-v-fcfa0fb4=""></path><path class="js_fillColor" d="M239.337 145.999H236.659C236.472 146.087 236.309 146.218 236.183 146.382C236.145 146.431 236.111 146.483 236.081 146.537C236.011 146.662 235.961 146.798 235.934 146.94L236.224 152.333V164.421L236.043 170.176C236.043 170.401 236.239 170.626 236.404 170.816C236.505 170.932 236.595 171.035 236.622 171.117C236.75 171.16 236.903 171.196 237.071 171.227C237.214 171.254 237.369 171.277 237.532 171.299C237.735 171.325 237.951 171.35 238.168 171.374L238.176 171.375C238.615 171.424 239.063 171.475 239.445 171.552L242.848 172.131C243.559 167.69 243.922 163.2 243.935 158.703C243.934 154.242 243.583 149.789 242.885 145.383L239.337 145.999Z" fill="#484848" fill-opacity="0.2" data-v-fcfa0fb4=""></path><path class="js_fillColor" d="M221.831 205.271C222.012 205.248 222.174 205.248 222.251 205.248C223.033 205.769 223.783 206.337 224.496 206.949L227.319 208.94C222.032 216.176 215.644 222.539 208.387 227.797L206.397 225.01L205.492 223.816L205.021 223.201C204.938 223.087 204.865 222.966 204.804 222.839C204.757 222.708 204.733 222.57 204.733 222.432C204.733 222.366 204.738 222.301 204.748 222.237C204.779 222.034 204.861 221.843 204.985 221.681L209.003 218.061L213.347 213.863L217.545 209.519L221.166 205.538C221.188 205.512 221.214 205.488 221.243 205.467C221.272 205.445 221.304 205.425 221.339 205.407C221.379 205.386 221.421 205.368 221.466 205.352C221.583 205.311 221.711 205.286 221.831 205.271Z" fill="#484848" fill-opacity="0.2" data-v-fcfa0fb4=""></path><path class="js_fillColor" d="M203.754 97.3175L204.152 97.7882L203.754 97.4984V97.3175Z" fill="#484848" fill-opacity="0.2" data-v-fcfa0fb4=""></path><path class="js_fillColor" d="M171.212 238.04V237.28C171.223 237.148 171.223 237.015 171.212 236.882C171.178 236.808 171.137 236.739 171.09 236.673C171.021 236.576 170.938 236.489 170.845 236.414C170.688 236.289 170.504 236.201 170.307 236.158L164.913 236.448H152.787L147.466 236.122C147.227 236.122 146.973 236.342 146.776 236.513C146.674 236.601 146.586 236.676 146.525 236.701L146.445 237.06L146.407 237.245C146.37 237.425 146.336 237.606 146.305 237.787L146.277 237.96C146.257 238.076 146.24 238.191 146.223 238.307L146.193 238.533C146.15 238.862 146.116 239.193 146.09 239.524C145.93 240.382 145.789 241.239 145.638 242.155L145.475 243.144C149.857 243.84 154.287 244.191 158.724 244.193C163.245 244.181 167.759 243.818 172.226 243.107L172.168 242.754L172.165 242.741L172.162 242.73C172.08 242.211 171.996 241.686 171.908 241.161C171.826 240.673 171.739 240.186 171.646 239.705L171.212 238.04Z" fill="#484848" fill-opacity="0.2" data-v-fcfa0fb4=""></path><path class="js_fillColor" d="M93.6753 110.963L94.2906 111.397C94.2906 111.397 94.6528 111.397 94.7976 111.65C94.9425 111.904 95.268 111.469 95.268 111.216L95.5211 110.927L96.4985 109.768L98.4892 107.488L102.652 103.109L107.069 98.9462L109.349 96.9556C109.858 96.4398 110.429 95.9898 111.05 95.6164C111.05 95.6164 111.304 95.2907 111.304 95.0012V94.7116L110.833 94.0602L109.965 92.8294C109.784 92.5628 109.605 92.293 109.429 92.0212L109.154 91.5916C108.97 91.3 108.786 91.0064 108.604 90.712L108.191 90.0427C101.121 95.2176 94.8829 101.442 89.6931 108.502L92.4806 110.275L93.6753 110.963Z" fill="#484848" fill-opacity="0.2" data-v-fcfa0fb4=""></path><path class="js_fillColor" d="M111.267 222.839L110.797 223.454L109.929 224.612C109.313 225.553 108.697 226.494 108.119 227.435C101.071 222.346 94.8352 216.22 89.6207 209.266L92.4448 207.493L93.6753 206.588L94.2787 206.171L94.2906 206.153L94.3016 206.145C94.3484 206.092 94.4621 205.963 94.5684 205.872C94.6959 205.763 94.8132 205.708 94.7976 205.9C94.7839 206.064 94.8481 206.166 94.9324 206.23C95.0718 206.334 95.268 206.334 95.268 206.334L95.5211 206.624L96.4985 207.782L98.4892 210.062L102.616 214.442L107.032 218.604L109.313 220.595C109.377 220.66 109.442 220.723 109.508 220.786C109.566 220.841 109.624 220.895 109.684 220.949C109.841 221.09 110.002 221.225 110.169 221.354C110.316 221.468 110.465 221.577 110.619 221.681C110.748 221.769 110.881 221.853 111.014 221.934C111.135 221.934 111.199 222.058 111.232 222.196C111.239 222.227 111.245 222.258 111.249 222.29C111.255 222.326 111.258 222.362 111.261 222.394C111.267 222.469 111.267 222.528 111.267 222.549V222.839Z" fill="#484848" fill-opacity="0.2" data-v-fcfa0fb4=""></path><path class="js_fillColor" d="M78.8697 170.864H80.1369C80.246 170.864 80.3185 170.43 80.1369 170.249V168.005L79.9196 164.964L79.5217 158.666L79.7023 152.622L79.9196 149.582C79.926 148.865 79.9985 148.15 80.1369 147.446C80.1369 147.446 80.1369 147.048 79.9196 146.831C79.8774 146.789 79.8518 146.763 79.8353 146.749C79.8206 146.737 79.8142 146.733 79.8096 146.735C79.8059 146.737 79.8041 146.742 79.8023 146.749C79.7995 146.759 79.7949 146.773 79.783 146.786C79.7628 146.809 79.7225 146.831 79.6308 146.831H78.8697L77.3862 146.578L76.5334 146.406C76.2336 146.345 75.9337 146.282 75.6339 146.216L75.4881 146.184L75.0828 146.092L74.7527 146.013L74.4557 145.939L74.1283 145.854C73.4846 150.095 73.1573 154.377 73.1509 158.666C73.1591 163.065 73.4975 167.457 74.1641 171.805C75.2506 171.515 76.3005 171.298 77.3862 171.081L78.8697 170.864Z" fill="#484848" fill-opacity="0.2" data-v-fcfa0fb4=""></path><path class="js_fillColor" d="M216.677 151.211C216.718 151.045 216.731 150.874 216.713 150.704H233.726V167.136H216.677V151.211Z" fill="#484848" fill-opacity="0.2" data-v-fcfa0fb4=""></path><path class="js_fillColor" d="M152.461 100.539H167.013V83.5277H150.688V100.756C151.266 100.539 151.882 100.756 152.461 100.539Z" fill="#484848" fill-opacity="0.2" data-v-fcfa0fb4=""></path><path class="js_fillColor" d="M166.145 216.939L167.013 216.83V233.95H150.688V216.939H166.145Z" fill="#484848" fill-opacity="0.2" data-v-fcfa0fb4=""></path><path class="js_fillColor" d="M100.01 164.928V150.813H83.0326V167.136H100.046C99.9801 166.402 99.9682 165.664 100.01 164.928Z" fill="#484848" fill-opacity="0.2" data-v-fcfa0fb4=""></path><path class="js_fillColor" d="M117.24 117.369L112.969 121.676C112.68 121.944 112.404 122.165 112.172 122.399C111.996 122.576 111.847 122.761 111.738 122.979L99.7564 110.999L101.096 109.696L105.404 105.425L109.639 101.118L111.304 99.4531L123.321 111.469C123.084 111.624 122.866 111.807 122.67 112.012L121.584 113.098L117.24 117.369Z" fill="#484848" fill-opacity="0.2" data-v-fcfa0fb4=""></path><path class="js_fillColor" d="M122.525 205.321L121.439 204.235L117.095 199.964L112.969 195.621C112.789 195.404 112.581 195.206 112.37 195.003C112.156 194.799 111.938 194.59 111.738 194.354L99.7564 206.334L101.096 207.637L105.404 211.908L109.349 216.215L111.014 217.88L123.176 205.719C122.946 205.61 122.728 205.476 122.525 205.321Z" fill="#484848" fill-opacity="0.2" data-v-fcfa0fb4=""></path><path class="js_fillColor" d="M195.248 113.098L194.162 112.012L193.872 111.614L205.926 99.7064C206.347 100.143 206.762 100.564 207.17 100.975L207.549 101.356C207.858 101.665 208.165 101.97 208.471 102.273L208.517 102.32C208.902 102.702 209.282 103.081 209.66 103.461C210.277 104.08 210.889 104.704 211.5 105.353L215.808 109.624L217.473 111.252L205.419 123.305C205.341 123.194 205.256 123.09 205.166 122.989C205.071 122.882 204.97 122.779 204.866 122.678C204.744 122.56 204.62 122.445 204.496 122.329C204.273 122.121 204.053 121.91 203.863 121.676L199.591 117.369L195.248 113.098Z" fill="#484848" fill-opacity="0.2" data-v-fcfa0fb4=""></path><path class="js_fillColor" d="M203.863 195.621L199.591 199.964L195.248 204.235L194.162 205.321L193.872 205.574L205.926 217.627C206.387 217.148 206.843 216.683 207.299 216.222L208.372 215.142C209.388 214.122 210.416 213.089 211.5 211.944L215.808 207.71L217.473 206.081L205.419 193.992C205.238 194.202 205.052 194.409 204.864 194.612C204.542 194.959 204.207 195.295 203.863 195.621Z" fill="#484848" fill-opacity="0.2" data-v-fcfa0fb4=""></path><path class="js_fillColor" fill-rule="evenodd" clip-rule="evenodd" d="M206.324 168.294C208.641 167.824 210.957 167.426 213.274 167.064H213.564L214.215 166.81V150.921L213.564 150.668H213.274C212.721 150.581 212.168 150.493 211.614 150.402C211.062 150.311 210.51 150.217 209.958 150.121C209.55 150.05 209.142 149.977 208.734 149.902C207.931 149.755 207.127 149.6 206.324 149.437L202.487 148.532L202.27 147.664C201.172 143.445 199.491 139.401 197.275 135.647L196.804 134.887C197.492 133.765 198.216 132.643 198.903 131.485C200.206 129.53 201.582 127.612 202.958 125.73L203.139 125.477C203.264 125.278 203.35 125.056 203.392 124.825C203.139 124.608 202.487 123.92 202.053 123.595L197.673 119.36L193.438 114.98L192.605 113.786L192.388 113.569C192.224 113.586 192.065 113.634 191.919 113.709C191.856 113.742 191.795 113.779 191.737 113.822H191.483C189.6 115.197 187.682 116.573 185.727 117.876L182.107 120.011L181.347 119.541C177.751 117.43 173.876 115.834 169.836 114.799L168.931 114.546L168.772 113.854C168.698 113.533 168.624 113.215 168.549 112.901C168.383 112.207 168.21 111.538 168.026 110.927C167.568 108.514 167.17 106.197 166.832 103.977V103.688C166.818 103.636 166.803 103.584 166.785 103.533L166.747 103.43C166.692 103.292 166.624 103.16 166.542 103.036H150.688C150.549 103.228 150.461 103.452 150.434 103.688V103.977C150.12 106.39 149.722 108.707 149.239 110.927C149.082 111.536 148.943 112.145 148.807 112.734L148.805 112.747C148.66 113.378 148.52 113.986 148.371 114.546L147.43 114.799C143.279 115.845 139.303 117.491 135.629 119.685L134.905 120.12L131.285 117.912C129.294 116.609 127.376 115.234 125.494 113.858H125.276C125.219 113.821 125.161 113.787 125.1 113.757C125.031 113.723 124.96 113.694 124.887 113.669L124.793 113.641C124.737 113.626 124.681 113.614 124.625 113.605L124.408 113.822L123.358 114.944L119.123 119.324L114.743 123.558C114.506 123.752 114.166 124.075 113.876 124.35C113.679 124.536 113.506 124.701 113.403 124.789C113.445 125.02 113.531 125.241 113.657 125.44V125.694C114.571 126.913 115.456 128.148 116.32 129.397L116.66 129.892L117.202 130.689L117.711 131.449C118.435 132.679 119.195 133.838 119.955 135.068C119.777 135.295 119.62 135.537 119.485 135.792C117.314 139.478 115.669 143.449 114.598 147.591L114.38 148.46L110.327 149.401C108.01 149.871 105.693 150.27 103.376 150.631H103.087C102.858 150.684 102.639 150.769 102.436 150.885V166.774C102.482 166.799 102.531 166.823 102.58 166.845L102.675 166.888C102.809 166.944 102.946 166.991 103.087 167.027H103.376C105.693 167.389 108.01 167.788 110.327 168.258L114.453 169.235L114.67 170.068C115.724 174.112 117.345 177.987 119.485 181.577L119.919 182.301L117.711 185.921C116.408 187.911 115.068 189.83 113.657 191.712V191.965C113.539 192.155 113.453 192.363 113.403 192.581C113.657 192.834 114.345 193.522 114.743 193.847L119.123 198.082L123.358 202.461L124.408 203.583L124.589 203.801C124.834 203.77 125.069 203.683 125.276 203.547H125.494C127.376 202.172 129.294 200.796 131.285 199.493L134.905 197.322L135.665 197.756C139.358 199.948 143.344 201.605 147.503 202.679L148.408 202.932C148.696 204.199 148.986 205.466 149.312 206.769C149.771 209.181 150.169 211.498 150.506 213.718V214.007C150.509 214.034 150.513 214.06 150.518 214.087L150.527 214.137C150.541 214.202 150.56 214.267 150.584 214.33C150.602 214.377 150.622 214.422 150.644 214.467C150.663 214.505 150.683 214.543 150.706 214.579C150.723 214.606 150.741 214.633 150.76 214.659H166.615C166.746 214.459 166.844 214.239 166.905 214.007V213.718C167.218 211.305 167.616 208.988 168.099 206.769C168.184 206.43 168.266 206.092 168.346 205.754C168.465 205.251 168.581 204.748 168.694 204.245L169.003 202.86L169.908 202.642C173.961 201.595 177.848 199.987 181.456 197.865L182.252 197.394L185.655 199.493C185.929 199.676 186.203 199.861 186.476 200.047C186.913 200.344 187.348 200.644 187.781 200.946C188.267 201.285 188.75 201.627 189.232 201.971C189.963 202.494 190.69 203.02 191.41 203.547H191.664C191.702 203.575 191.74 203.601 191.781 203.624C191.831 203.654 191.884 203.68 191.938 203.703C192.058 203.754 192.185 203.787 192.315 203.801L192.533 203.583L193.546 202.461L197.781 198.082L202.161 193.847C202.633 193.452 203.079 193.028 203.501 192.581C203.48 192.49 203.453 192.402 203.42 192.316C203.374 192.194 203.317 192.076 203.247 191.965L203.066 191.712C201.691 189.83 200.316 187.911 199.013 185.921L196.949 182.591C197.013 182.47 197.079 182.35 197.148 182.232C197.235 182.084 197.325 181.938 197.419 181.795C199.59 178.147 201.235 174.211 202.306 170.104L202.524 169.235L206.324 168.294ZM161.402 131.34C161.402 131.927 161.228 132.501 160.902 132.989C160.576 133.477 160.112 133.857 159.57 134.082C159.027 134.307 158.43 134.365 157.855 134.251C157.279 134.136 156.751 133.854 156.335 133.439C155.92 133.024 155.637 132.495 155.523 131.919C155.408 131.343 155.467 130.747 155.692 130.204C155.916 129.662 156.297 129.198 156.785 128.872C157.273 128.546 157.847 128.372 158.434 128.372C159.221 128.372 159.976 128.685 160.533 129.241C161.09 129.798 161.402 130.553 161.402 131.34ZM135.81 192.87C132.418 190.3 129.334 187.349 126.616 184.075C123.986 180.652 121.831 176.89 120.208 172.891C116.973 164.488 116.592 155.255 119.123 146.614C121.899 138.094 127.171 130.604 134.254 125.115C137.679 122.467 141.487 120.356 145.548 118.853C149.668 117.525 154.03 117.117 158.325 117.659V118.021C149.981 118.351 142.016 121.591 135.81 127.178C129.464 132.625 124.826 139.789 122.453 147.808C119.96 155.752 120.061 164.284 122.743 172.167C125.532 179.99 130.091 187.062 136.064 192.834L135.81 192.87ZM134.688 158.666C134.688 159.254 134.514 159.827 134.188 160.315C133.861 160.804 133.398 161.184 132.856 161.409C132.314 161.633 131.717 161.692 131.141 161.577C130.565 161.463 130.036 161.18 129.621 160.765C129.205 160.35 128.923 159.821 128.808 159.246C128.694 158.67 128.752 158.073 128.977 157.531C129.202 156.989 129.582 156.525 130.071 156.199C130.559 155.873 131.133 155.699 131.719 155.699C132.507 155.699 133.262 156.011 133.818 156.568C134.375 157.124 134.688 157.88 134.688 158.666ZM139.068 179.731C138.476 179.753 137.892 179.598 137.391 179.285C136.888 178.972 136.491 178.517 136.249 177.977C136.008 177.437 135.934 176.837 136.035 176.254C136.137 175.671 136.411 175.132 136.822 174.706C137.232 174.28 137.76 173.987 138.339 173.863C138.917 173.74 139.52 173.792 140.069 174.013C140.251 174.086 140.424 174.177 140.586 174.283C140.913 174.497 141.197 174.776 141.419 175.104C141.75 175.594 141.928 176.172 141.928 176.764C141.942 177.165 141.875 177.566 141.73 177.941C141.586 178.316 141.366 178.658 141.085 178.946C140.963 179.071 140.83 179.185 140.688 179.287C140.505 179.418 140.306 179.528 140.096 179.615C139.724 179.769 139.325 179.845 138.923 179.84L139.068 179.731ZM139.068 141.945C138.481 141.945 137.907 141.771 137.419 141.445C136.93 141.119 136.55 140.655 136.325 140.113C136.101 139.57 136.042 138.974 136.156 138.398C136.271 137.822 136.554 137.293 136.969 136.878C137.384 136.463 137.913 136.181 138.489 136.066C139.065 135.951 139.662 136.01 140.204 136.235C140.747 136.46 141.21 136.84 141.536 137.328C141.862 137.816 142.036 138.39 142.036 138.977C142.051 139.388 141.982 139.798 141.83 140.181C141.763 140.353 141.678 140.517 141.58 140.673L141.558 140.706C141.514 140.775 141.467 140.84 141.418 140.904C141.388 140.943 141.358 140.981 141.326 141.018C141.273 141.081 141.216 141.142 141.156 141.2C140.864 141.489 140.514 141.715 140.13 141.862C139.92 141.942 139.703 141.997 139.482 142.028C139.384 142.042 139.285 142.051 139.186 142.055C139.099 142.058 139.011 142.058 138.923 142.053L139.068 141.945ZM158.76 188.563C158.173 188.563 157.599 188.389 157.111 188.063C156.876 187.906 156.666 187.717 156.487 187.503C156.292 187.272 156.134 187.012 156.017 186.731C155.792 186.188 155.734 185.592 155.848 185.016C155.963 184.44 156.245 183.911 156.661 183.496C157.076 183.081 157.605 182.799 158.181 182.684C158.757 182.57 159.353 182.628 159.896 182.853C160.438 183.078 160.902 183.458 161.228 183.946C161.365 184.152 161.476 184.373 161.558 184.604C161.67 184.92 161.728 185.255 161.728 185.595C161.743 186.006 161.674 186.416 161.522 186.799C161.439 187.01 161.332 187.209 161.203 187.395C161.099 187.546 160.979 187.688 160.848 187.818C160.556 188.107 160.206 188.333 159.821 188.48C159.437 188.627 159.026 188.692 158.615 188.671L158.76 188.563ZM173.926 159.933L173.673 161.562C173.436 162.551 173.121 163.519 172.733 164.458C171.859 166.256 170.626 167.857 169.113 169.163C167.648 170.406 165.946 171.339 164.111 171.905C162.276 172.471 160.344 172.659 158.434 172.457C154.954 172.04 151.767 170.304 149.529 167.607C148.594 166.52 147.825 165.3 147.249 163.987C147.848 165.339 148.695 166.567 149.746 167.607C150.899 168.763 152.271 169.679 153.781 170.3C155.291 170.922 156.909 171.236 158.542 171.226C161.823 171.21 164.967 169.911 167.303 167.607C169.576 165.257 170.847 162.116 170.847 158.848C170.847 155.579 169.576 152.438 167.303 150.089C164.963 147.791 161.821 146.493 158.542 146.469C156.91 146.463 155.293 146.779 153.783 147.4C152.273 148.022 150.902 148.935 149.746 150.089C148.755 151.072 147.946 152.224 147.358 153.491C148.293 151.193 149.833 149.192 151.816 147.701C153.798 146.209 156.148 145.284 158.615 145.021C160.57 144.81 162.547 145.018 164.416 145.631C166.284 146.244 168 147.249 169.449 148.578C170.899 149.907 172.048 151.53 172.82 153.338C173.592 155.147 173.969 157.099 173.926 159.065V159.933ZM150.76 163.806C151.892 165.997 153.641 167.809 155.792 169.018C153.235 168.294 151.033 166.659 149.601 164.421C148.208 162.148 147.633 159.466 147.973 156.821C148.341 154.166 149.62 151.722 151.593 149.908C153.582 148.141 156.174 147.208 158.832 147.302C156.401 147.809 154.195 149.076 152.534 150.921C151.06 152.652 150.116 154.77 149.814 157.023C149.512 159.276 149.866 161.568 150.832 163.625L150.76 163.806ZM169.221 153.527C170.072 155.085 170.543 156.82 170.596 158.594C170.543 160.352 170.085 162.073 169.257 163.625C170.008 162.042 170.391 160.31 170.38 158.558C170.327 156.839 169.881 155.155 169.076 153.636L169.221 153.527ZM179.429 180.636C178.842 180.636 178.268 180.462 177.78 180.136C177.292 179.81 176.911 179.347 176.686 178.804C176.666 178.756 176.647 178.707 176.63 178.657C176.597 178.562 176.569 178.466 176.545 178.369C176.527 178.295 176.511 178.219 176.499 178.144C176.442 177.796 176.448 177.439 176.518 177.09C176.632 176.514 176.915 175.985 177.33 175.57C177.576 175.324 177.861 175.125 178.172 174.98C178.279 174.93 178.39 174.886 178.504 174.848C178.617 174.811 178.732 174.781 178.849 174.758C179.425 174.643 180.022 174.702 180.565 174.927C181.107 175.151 181.571 175.531 181.897 176.02C182.223 176.508 182.397 177.082 182.397 177.668C182.413 178.08 182.343 178.49 182.192 178.873C182.145 178.991 182.09 179.106 182.028 179.217C181.954 179.352 181.869 179.481 181.774 179.602C181.696 179.704 181.609 179.801 181.518 179.891C181.225 180.181 180.875 180.406 180.491 180.553C180.346 180.609 180.197 180.652 180.046 180.684C179.921 180.711 179.795 180.729 179.667 180.739C179.54 180.749 179.412 180.751 179.284 180.745L179.429 180.636ZM179.429 141.945C179.189 141.945 178.951 141.916 178.721 141.859C178.387 141.777 178.069 141.638 177.78 141.445C177.292 141.119 176.911 140.655 176.686 140.113C176.462 139.57 176.403 138.974 176.518 138.398C176.632 137.822 176.915 137.293 177.33 136.878C177.745 136.463 178.274 136.181 178.849 136.066C179.425 135.951 180.022 136.01 180.565 136.235C180.856 136.355 181.123 136.521 181.36 136.723C181.564 136.898 181.746 137.102 181.897 137.328C182.223 137.816 182.397 138.39 182.397 138.977C182.404 139.167 182.393 139.357 182.365 139.544C182.331 139.762 182.273 139.975 182.192 140.181C182.039 140.564 181.81 140.911 181.518 141.2C181.225 141.489 180.875 141.715 180.491 141.862C180.326 141.925 180.156 141.973 179.983 142.005C179.754 142.049 179.519 142.065 179.284 142.053L179.429 141.945ZM186.379 161.635C185.792 161.635 185.218 161.46 184.73 161.134C184.242 160.808 183.861 160.345 183.637 159.802C183.412 159.26 183.353 158.663 183.468 158.088C183.583 157.512 183.865 156.983 184.28 156.568C184.695 156.153 185.224 155.87 185.8 155.756C186.376 155.641 186.972 155.7 187.515 155.925C188.057 156.149 188.521 156.53 188.847 157.018C189.173 157.506 189.347 158.08 189.347 158.666C189.363 159.078 189.292 159.488 189.141 159.871C188.99 160.253 188.76 160.6 188.468 160.89C188.363 160.993 188.25 161.089 188.131 161.176C187.92 161.331 187.688 161.457 187.441 161.551C187.293 161.608 187.142 161.652 186.988 161.684C186.9 161.702 186.811 161.717 186.722 161.727C186.561 161.746 186.398 161.751 186.234 161.743L186.379 161.635Z" fill="#484848" fill-opacity="0.2" data-v-fcfa0fb4=""></path></g><path data-v-fcfa0fb4="" class="js_fillColorCircle wheel-main-circle" fill-rule="evenodd" clip-rule="evenodd" d="M148.588 34.1845C148.407 33.4719 148.407 32.7255 148.588 32.0129C148.883 31.2207 149.43 30.547 150.144 30.0946C151.464 29.3157 152.957 28.8802 154.488 28.8278C153.683 23.2222 152.473 17.6821 150.868 12.2509C150.036 9.4155 150.112 6.39058 151.086 3.60051C151.804 2.27006 153.011 1.27074 154.452 0.813579C155.859 0.388454 157.326 0.192912 158.796 0.234474C160.265 0.192912 161.732 0.388454 163.14 0.813579C164.586 1.26032 165.797 2.26255 166.506 3.60051C167.492 6.38678 167.58 9.41174 166.759 12.2509C165.155 17.6823 163.946 23.2223 163.14 28.8278C164.681 28.8862 166.185 29.3211 167.52 30.0946C168.222 30.5509 168.756 31.2246 169.04 32.0129C169.239 32.7231 169.239 33.4744 169.04 34.1845H148.588ZM152.054 6.03014C151.948 6.98016 152.05 7.94193 152.353 8.84866L152.497 8.81247C153.262 11.8671 154.47 14.7935 156.081 17.4991H156.407C155.8 14.564 155.413 11.5879 155.248 8.5953C155.364 7.45473 155.631 6.33478 156.045 5.26545C156.153 4.50538 156.877 3.67291 158.47 2.65947V2.29754C157.666 1.77848 156.704 1.56052 155.755 1.68223C154.643 1.84874 153.641 2.44698 152.968 3.34716C152.472 4.1646 152.16 5.08011 152.054 6.03014ZM316.548 158.294H316.765C316.807 156.825 316.611 155.358 316.186 153.951C315.729 152.51 314.729 151.303 313.399 150.585C310.608 149.62 307.589 149.532 304.747 150.331C299.32 151.952 293.778 153.162 288.168 153.951C288.116 152.42 287.68 150.927 286.901 149.608C286.449 148.893 285.775 148.347 284.983 148.051C284.27 147.87 283.524 147.87 282.811 148.051V169.08C283.521 169.279 284.273 169.279 284.983 169.08C285.78 168.811 286.458 168.274 286.901 167.56C287.676 166.241 288.1 164.746 288.132 163.217C293.754 164.001 299.308 165.211 304.747 166.836C307.587 167.657 310.612 167.568 313.399 166.583C314.737 165.874 315.739 164.663 316.186 163.217C316.611 161.809 316.807 160.343 316.765 158.873L316.548 158.294ZM314.593 159.127H314.34C313.692 157.975 312.941 156.884 312.095 155.869C311.387 155.046 310.457 154.443 309.417 154.132C306.659 153.824 303.868 154.121 301.236 155V154.747C303.763 153.057 306.705 152.094 309.742 151.96C310.648 151.923 311.548 152.116 312.358 152.521C313.168 152.926 313.863 153.53 314.376 154.277C314.804 155.033 315.047 155.88 315.085 156.748C315.123 157.616 314.954 158.481 314.593 159.271V159.127ZM148.009 284.865C147.828 284.152 147.828 283.406 148.009 282.693H168.461C168.66 283.403 168.66 284.155 168.461 284.865C168.177 285.653 167.643 286.327 166.94 286.783C165.606 287.557 164.102 287.992 162.56 288.05C163.367 293.656 164.576 299.196 166.18 304.627C167.001 307.466 166.913 310.491 165.927 313.277C165.218 314.615 164.007 315.618 162.56 316.064C161.153 316.489 159.686 316.685 158.217 316.643C156.747 316.685 155.28 316.489 153.873 316.064C152.432 315.607 151.224 314.608 150.506 313.277C149.532 310.487 149.457 307.462 150.289 304.627C151.897 299.184 153.107 293.632 153.909 288.014C152.378 287.99 150.881 287.566 149.565 286.783C148.851 286.331 148.304 285.657 148.009 284.865ZM151.326 311.177C151.608 312.189 152.106 313.128 152.787 313.929C153.57 314.648 154.549 315.118 155.599 315.279C156.65 315.44 157.725 315.285 158.687 314.834V314.58C157.164 314.159 155.81 313.273 154.814 312.047C153.991 310.812 153.482 309.396 153.33 307.921C153.203 304.426 153.557 300.931 154.38 297.533H154.126C152.504 300.834 151.498 304.403 151.158 308.065C150.987 309.102 151.045 310.164 151.326 311.177ZM75.0693 66.1801L70.5807 70.5958L63.9564 77.3279L63.1239 78.1604C62.4952 77.7566 61.9835 77.195 61.6397 76.5317C61.2773 75.7769 61.1878 74.92 61.3863 74.1067C61.7628 72.6204 62.5244 71.2597 63.5944 70.1615C59.0984 66.7288 54.3557 63.6319 49.4047 60.8958C46.8033 59.4738 44.7141 57.2709 43.432 54.598C43.2043 53.8827 43.1252 53.1284 43.1999 52.3815C43.2746 51.6345 43.5015 50.9108 43.8664 50.2547C44.5341 48.9155 45.4142 47.6932 46.4727 46.6353C47.5195 45.5544 48.7438 44.6607 50.0925 43.9931C50.7546 43.644 51.4792 43.4291 52.2246 43.3608C52.9701 43.2925 53.7216 43.3721 54.4362 43.595C57.1069 44.8634 59.3106 46.9401 60.7348 49.5308C63.4712 54.4813 66.5685 59.2234 70.0015 63.7189C71.107 62.6663 72.4663 61.9181 73.9471 61.5473C74.7719 61.34 75.6433 61.4297 76.4086 61.8006C77.0668 62.1214 77.6194 62.6238 78.0013 63.2484L75.0693 66.1801ZM48.3912 58.2898C51.7318 60.8758 55.4903 62.8712 59.5041 64.1895L59.685 63.7551C57.9837 62.5969 56.3186 61.4025 54.7621 60.1357C53.1719 58.959 51.7153 57.6118 50.4183 56.1182C49.4039 54.9222 48.74 53.4692 48.4998 51.9197C48.5039 50.1808 49.0477 48.4862 50.0563 47.0697L49.8391 46.7801C48.6797 46.9859 47.6012 47.5125 46.7261 48.3002C45.6684 49.2247 45.0073 50.5208 44.8799 51.9197C44.7643 53.2992 45.1498 54.6741 45.9658 55.7924C46.6515 56.7359 47.4682 57.5768 48.3912 58.2898ZM70.5807 246.644L75.0693 251.06L77.4946 253.268C77.754 253.503 77.9959 253.757 78.2185 254.028C77.8232 254.717 77.212 255.257 76.4793 255.564C75.7466 255.872 74.9332 255.929 74.1643 255.729C72.6894 255.343 71.3335 254.597 70.2187 253.557C66.7857 258.053 63.6884 262.795 60.952 267.745C59.5181 270.328 57.3173 272.402 54.6535 273.681C53.9389 273.904 53.1873 273.984 52.4418 273.915C51.6964 273.847 50.9718 273.632 50.3097 273.283C48.961 272.615 47.7367 271.722 46.6899 270.641H46.5089C45.4505 269.583 44.5703 268.361 43.9026 267.021C43.5377 266.365 43.3109 265.641 43.2362 264.895C43.1615 264.148 43.2404 263.393 43.4682 262.678C44.7503 260.005 46.8395 257.802 49.441 256.38C54.3919 253.644 59.1346 250.547 63.6306 247.115C62.5606 246.016 61.7991 244.656 61.4226 243.169C61.2329 242.343 61.3219 241.478 61.6759 240.708C62.0206 240.055 62.5328 239.505 63.16 239.116L63.9926 239.948L70.5807 246.644ZM48.2826 262.425C49.3027 261.168 50.5263 260.091 51.9024 259.24C53.3175 258.342 54.7796 257.52 56.2824 256.778V256.525C52.8323 257.299 49.6176 258.888 46.9071 261.158C46.1524 261.861 45.549 262.711 45.1334 263.655C44.7332 264.717 44.7332 265.887 45.1334 266.949C45.5358 267.829 46.1272 268.609 46.8654 269.235C47.6036 269.86 48.4706 270.316 49.4047 270.568V270.351C48.6079 268.996 47.976 267.55 47.5225 266.044C47.3724 265.422 47.3627 264.775 47.4942 264.149C47.6257 263.523 47.895 262.934 48.2826 262.425ZM246.54 70.5234L242.088 66.1077L239.844 63.8999L239.084 63.176C239.49 62.5585 240.052 62.0591 240.713 61.7282C241.467 61.3659 242.324 61.2763 243.138 61.4749C244.629 61.8461 246 62.5938 247.12 63.6465C250.553 59.159 253.639 54.4159 256.35 49.4584C257.774 46.8677 259.978 44.791 262.649 43.5226C264.104 43.0703 265.679 43.2135 267.029 43.9208C268.371 44.5982 269.594 45.4907 270.648 46.5629L270.612 46.5991C271.693 47.6458 272.587 48.87 273.255 50.2185C273.612 50.8774 273.834 51.6008 273.909 52.3465C273.983 53.0922 273.909 53.8453 273.689 54.5618C272.407 57.2348 270.318 59.4376 267.716 60.8596C262.765 63.5957 258.023 66.6926 253.527 70.1253C254.583 71.2333 255.343 72.5904 255.735 74.0704C255.906 74.8854 255.817 75.7335 255.481 76.4955C255.126 77.1506 254.617 77.7096 253.997 78.1242L253.165 77.2917L250.957 75.0477L246.54 70.5234ZM263.409 45.079C262.5 45.5038 261.678 46.0928 260.984 46.8163C258.643 49.5643 257.014 52.8458 256.241 56.3715H256.495C257.962 53.4554 259.964 50.8403 262.395 48.6622C263.441 47.9051 264.733 47.5692 266.015 47.7211C267.523 47.9925 268.969 48.5318 270.286 49.3137L270.504 49.1327C270.231 48.1959 269.736 47.3384 269.062 46.6329C268.388 45.9273 267.554 45.3943 266.63 45.079C265.59 44.7 264.449 44.7 263.409 45.079ZM246.432 246.499L250.812 242.047L253.056 239.948L253.889 239.079C254.517 239.483 255.029 240.045 255.373 240.708C255.735 241.463 255.825 242.32 255.626 243.133C255.25 244.619 254.488 245.98 253.418 247.078C257.905 250.523 262.649 253.621 267.608 256.344C270.209 257.766 272.298 259.969 273.581 262.642C274.033 264.097 273.89 265.672 273.182 267.021C272.491 268.301 271.599 269.462 270.54 270.46C269.493 271.541 268.269 272.434 266.92 273.102C265.582 273.8 264.026 273.956 262.576 273.536C259.915 272.236 257.717 270.152 256.278 267.564C253.541 262.614 250.444 257.872 247.011 253.376C245.906 254.429 244.546 255.177 243.065 255.548C242.243 255.749 241.378 255.672 240.604 255.331C239.952 254.984 239.402 254.473 239.011 253.847L241.943 250.915L246.432 246.499ZM262.468 268.035C259.987 266.158 257.917 263.793 256.386 261.085L256.278 261.013C257.186 264.259 258.919 267.214 261.309 269.591C261.992 270.326 262.858 270.868 263.818 271.16C264.778 271.453 265.798 271.486 266.775 271.256C267.645 270.948 268.428 270.435 269.058 269.761C269.688 269.087 270.146 268.272 270.395 267.383H270.214C268.918 268.059 267.526 268.535 266.087 268.795C264.829 268.961 263.553 268.693 262.468 268.035ZM34.3099 147.87V164.592H34.7082V168.32C33.9979 168.519 33.2465 168.519 32.5363 168.32C31.7396 168.051 31.0613 167.514 30.6178 166.8C29.8485 165.477 29.4136 163.986 29.3508 162.456C23.7414 163.244 18.1994 164.454 12.772 166.076C9.93253 166.897 6.90719 166.808 4.1206 165.823C2.78248 165.114 1.78016 163.903 1.33337 162.456C0.908197 161.049 0.712619 159.583 0.754185 158.113H0.356057C0.314491 156.644 0.509959 155.177 0.935132 153.77C1.39234 152.329 2.39186 151.122 3.72247 150.404C6.51298 149.439 9.53162 149.351 12.3738 150.15C17.8013 151.771 23.3433 152.981 28.9527 153.77C29.005 152.239 29.4406 150.746 30.2196 149.427C30.6721 148.712 31.3459 148.166 32.1381 147.87C32.8508 147.689 33.5973 147.689 34.3099 147.87ZM5.64097 163.94C7.28431 164.772 9.16672 165.002 10.9621 164.592V164.7C12.5662 164.265 14.1014 163.607 15.523 162.746V162.493C13.9927 162.933 12.4098 163.165 10.8173 163.18C9.40061 163.274 7.99476 162.878 6.83547 162.058C5.96888 161.115 5.38008 159.95 5.13414 158.692C4.7073 157.212 4.4046 155.699 4.22919 154.168H3.97588C3.39872 154.869 2.96697 155.679 2.70594 156.549C2.44491 157.419 2.35979 158.332 2.45551 159.235C2.57208 160.217 2.92214 161.156 3.47635 161.975C4.03055 162.794 4.7728 163.467 5.64097 163.94ZM276.404 171.107L277.997 170.926C278.437 170.896 278.874 170.823 279.3 170.709C279.567 170.64 279.815 170.514 280.028 170.339C280.241 170.164 280.412 169.944 280.531 169.695L280.277 164.592V152.033L280.531 146.965C280.41 146.722 280.237 146.508 280.024 146.339C279.812 146.17 279.564 146.05 279.3 145.988C278.867 145.842 278.417 145.756 277.96 145.735H276.368L272.748 145.119C272.766 144.854 272.766 144.588 272.748 144.323C270.216 123.799 262.159 104.346 249.436 88.0414C249.403 88.0008 249.37 87.9603 249.338 87.92L249.303 87.8748L249.284 87.8508L249.251 87.8083L249.251 87.8081C249.146 87.6723 249.045 87.5418 248.93 87.4261L251.138 84.3134L252.115 83.0828C252.411 82.7528 252.666 82.3882 252.875 81.997C253.021 81.7612 253.112 81.4962 253.144 81.2209C253.175 80.9456 253.145 80.6668 253.056 80.4044C253.056 80.4044 252.622 79.8615 252.803 80.1149L251.608 79.0652L249.291 76.966L244.767 72.6227L240.278 67.8089L237.129 64.3342C237.129 64.3342 237.129 64.1171 236.876 64.0447C236.384 63.8678 235.847 63.8678 235.355 64.0447C234.962 64.2723 234.497 64.6422 234.016 65.0253C233.656 65.3121 233.286 65.6065 232.93 65.8544L229.925 68.026L229.274 67.5193C212.93 54.7061 193.412 46.5743 172.805 43.9931H171.936C171.755 42.8349 171.574 41.6767 171.357 40.3737L171.176 38.8174C171.145 38.3652 171.073 37.9168 170.958 37.4782C170.804 36.957 170.454 36.5158 169.981 36.2476L164.877 36.501H152.353L147.212 36.2114C146.737 36.4939 146.388 36.947 146.235 37.4782C146.105 37.9025 146.02 38.3392 145.982 38.7812L145.801 40.3737C145.688 40.9553 145.595 41.5472 145.501 42.1432L145.501 42.1447L145.501 42.1456C145.414 42.6984 145.326 43.2553 145.222 43.8122H144.389C123.628 46.4615 103.994 54.7624 87.6301 67.8089L86.9785 68.3156C86.575 68.0317 86.1777 67.7416 85.7788 67.4504C85.2117 67.0363 84.6416 66.6201 84.0465 66.2163C83.557 65.8842 83.1434 65.5436 82.7692 65.2354L82.7688 65.2351L82.7687 65.2349L82.7685 65.2348C82.3682 64.9051 82.0128 64.6124 81.6574 64.4066C81.1655 64.2327 80.6289 64.2327 80.137 64.4066H80.1369C80.0645 64.4066 80.0211 64.4066 79.9881 64.4252C79.9387 64.453 79.9125 64.5227 79.8475 64.6962L78.8339 65.8544L76.7706 67.8089L72.3906 72.3331L67.902 76.6764L65.5491 78.7757L64.3907 79.8253C64.5717 79.572 64.0288 80.1873 64.1012 80.1149C63.9894 80.3655 63.9316 80.6368 63.9316 80.9111C63.9316 81.1855 63.9894 81.4568 64.1012 81.7074C64.3382 82.0894 64.6044 82.4524 64.8976 82.7932L65.8749 84.0238C66.5626 85.0373 67.2505 85.9783 67.9744 86.9556L67.4676 87.607C54.7206 103.99 46.6744 123.534 44.1922 144.142V144.975L40.7533 145.554H39.1968C38.7407 145.575 38.2899 145.661 37.8575 145.807C37.593 145.869 37.3456 145.989 37.1329 146.158C36.9202 146.327 36.7473 146.541 36.6267 146.784L36.8801 151.852L36.9525 158.294V164.592L36.663 169.695C36.7911 169.944 36.9702 170.162 37.1885 170.337C37.4067 170.511 37.6593 170.638 37.9298 170.709C38.3562 170.823 38.7926 170.896 39.233 170.926L40.7895 171.107L44.4093 171.686V172.518C46.9807 193.211 55.1537 212.809 68.0468 229.198L68.5174 229.814C68.2231 230.234 67.9234 230.649 67.6245 231.063L67.6233 231.064L67.6229 231.065L67.6219 231.066L67.6218 231.066C67.1497 231.72 66.6797 232.371 66.2369 233.035L65.2596 234.266C64.9664 234.606 64.7002 234.969 64.4632 235.351C64.3514 235.602 64.2936 235.873 64.2936 236.148C64.2936 236.422 64.3514 236.693 64.4632 236.944C64.4632 236.944 64.9337 237.487 64.7527 237.233L65.9111 238.283L68.264 240.382L72.7526 244.726L77.1326 249.25L79.232 251.566L80.2456 252.725C80.2456 252.725 80.2457 252.942 80.5352 253.014C81.0242 253.204 81.5665 253.204 82.0555 253.014C82.8839 252.454 83.6814 251.85 84.4446 251.204L87.6301 248.779L88.2093 249.214C104.53 261.928 123.998 269.972 144.534 272.487H145.33C145.423 273.014 145.51 273.541 145.595 274.063L145.596 274.068C145.71 274.762 145.822 275.446 145.945 276.106L146.126 277.699C146.165 278.141 146.25 278.577 146.38 279.002C146.533 279.533 146.882 279.986 147.357 280.268L152.497 279.979H165.022L170.126 280.232C170.599 279.964 170.949 279.523 171.103 279.002C171.217 278.563 171.29 278.115 171.32 277.662L171.501 276.106C171.721 275.041 171.886 273.977 172.043 272.959L172.043 272.959L172.081 272.719L172.117 272.487H172.949C193.436 269.925 212.848 261.871 229.129 249.178L229.744 248.707L232.966 250.987C233.277 251.213 233.604 251.478 233.929 251.74L233.929 251.74C234.436 252.15 234.936 252.554 235.355 252.797C236.043 253.195 236.586 253.123 236.876 252.797C237.036 252.617 237.074 252.636 237.095 252.646C237.099 252.648 237.102 252.65 237.106 252.65C237.111 252.649 237.117 252.644 237.125 252.63C237.134 252.614 237.146 252.588 237.165 252.544L238.215 251.349L240.314 249.033L244.658 244.509L249.147 240.165L251.5 238.066L252.658 237.016C252.477 237.27 253.02 236.654 252.948 236.727C253.059 236.482 253.116 236.217 253.116 235.949C253.116 235.68 253.059 235.415 252.948 235.17C252.713 234.776 252.446 234.4 252.151 234.048L251.174 232.818C250.757 232.192 250.316 231.579 249.878 230.97L249.878 230.969L249.877 230.969L249.877 230.969C249.556 230.522 249.236 230.077 248.93 229.633L249.4 229.017C262.228 212.642 270.361 193.088 272.929 172.446C272.947 172.181 272.947 171.915 272.929 171.65L276.404 171.107ZM228.514 83.2999C229.36 83.2928 230.189 83.5372 230.897 84.0021C231.604 84.467 232.157 85.1315 232.486 85.9112C232.814 86.691 232.904 87.5508 232.744 88.3817C232.583 89.2125 232.179 89.9769 231.583 90.5778C230.987 91.1787 230.226 91.5891 229.397 91.7569C228.567 91.9246 227.706 91.8422 226.924 91.52C226.141 91.1978 225.472 90.6505 225.001 89.9474C224.53 89.2443 224.279 88.4171 224.279 87.5709C224.274 87.0117 224.38 86.4572 224.59 85.9392C224.801 85.4212 225.112 84.9501 225.506 84.553C225.9 84.156 226.368 83.8408 226.885 83.6257C227.401 83.4106 227.954 83.2999 228.514 83.2999ZM158.615 53.7656C159.452 53.7656 160.271 54.0139 160.968 54.4792C161.664 54.9445 162.207 55.6059 162.528 56.3797C162.848 57.1535 162.932 58.005 162.769 58.8264C162.605 59.6479 162.202 60.4024 161.61 60.9946C161.017 61.5869 160.263 61.9902 159.441 62.1536C158.62 62.317 157.768 62.2331 156.994 61.9126C156.22 61.5921 155.559 61.0493 155.093 60.3529C154.628 59.6566 154.38 58.8378 154.38 58.0003C154.38 57.4442 154.489 56.8935 154.702 56.3797C154.915 55.8659 155.227 55.3991 155.62 55.0059C156.013 54.6126 156.48 54.3007 156.994 54.0879C157.508 53.8751 158.059 53.7656 158.615 53.7656ZM65.6216 221.887C61.3014 214.249 57.6674 206.243 54.7621 197.963C51.938 189.575 49.9376 180.932 48.7893 172.156C46.5482 154.342 48.6982 136.251 55.0516 119.458C61.7676 102.865 72.1645 88.0139 85.4581 76.0249C98.6705 64.3704 114.091 54.3085 131.466 51.0148V51.3767C123.077 53.6601 115.1 57.2512 107.829 62.0178C100.581 66.652 93.8141 71.9992 87.6301 77.9794C74.9535 89.9416 65.0666 104.548 58.6715 120.761C52.372 137.013 50.015 154.527 51.7938 171.867C53.7076 189.203 58.6062 206.077 66.2731 221.742L65.6216 221.887ZM91.2499 87.5709C91.2499 88.4156 90.9994 89.2413 90.5301 89.9436C90.0607 90.646 89.3936 91.1934 88.6131 91.5167C87.8326 91.8399 86.9737 91.9245 86.1451 91.7597C85.3166 91.5949 84.5556 91.1881 83.9582 90.5909C83.3608 89.9936 82.9539 89.2325 82.7891 88.4041C82.6243 87.5756 82.709 86.7169 83.0323 85.9365C83.3556 85.156 83.903 84.489 84.6054 84.0197C85.3079 83.5504 86.1337 83.2999 86.9785 83.2999C88.1114 83.2999 89.1978 83.7499 89.9988 84.5509C90.7999 85.3518 91.2499 86.4381 91.2499 87.5709ZM62.2913 158.548C62.2985 159.394 62.054 160.223 61.589 160.93C61.1241 161.637 60.4595 162.19 59.6797 162.519C58.8999 162.848 58.0399 162.938 57.209 162.777C56.378 162.616 55.6136 162.212 55.0126 161.617C54.4116 161.021 54.0012 160.26 53.8334 159.43C53.6656 158.601 53.7481 157.74 54.0703 156.958C54.3925 156.175 54.9399 155.506 55.6431 155.035C56.3463 154.564 57.1736 154.313 58.0199 154.313C59.1465 154.313 60.2275 154.758 61.0275 155.551C61.8275 156.344 62.2817 157.421 62.2913 158.548ZM87.9558 233.542C87.108 233.549 86.2772 233.304 85.5693 232.837C84.8613 232.37 84.3083 231.704 83.9805 230.922C83.6527 230.14 83.5651 229.278 83.7288 228.447C83.8924 227.615 84.3 226.85 84.8995 226.251C85.499 225.651 86.2634 225.244 87.0953 225.08C87.9272 224.917 88.789 225.004 89.571 225.332C90.3529 225.66 91.0197 226.213 91.4863 226.921C91.9529 227.629 92.1982 228.459 92.1911 229.307C92.1915 230.412 91.7601 231.473 90.9892 232.264C90.2183 233.055 89.1687 233.513 88.0644 233.542H87.9558ZM158.434 263.257C157.596 263.257 156.777 263.009 156.081 262.543C155.384 262.078 154.842 261.417 154.521 260.643C154.201 259.869 154.117 259.018 154.28 258.196C154.443 257.375 154.847 256.62 155.439 256.028C156.031 255.436 156.786 255.032 157.608 254.869C158.429 254.706 159.281 254.789 160.055 255.11C160.829 255.431 161.49 255.973 161.955 256.67C162.421 257.366 162.669 258.185 162.669 259.022C162.669 260.145 162.223 261.223 161.429 262.017C160.634 262.811 159.557 263.257 158.434 263.257ZM228.514 234.302C227.676 234.302 226.857 234.053 226.161 233.588C225.464 233.123 224.921 232.461 224.601 231.688C224.28 230.914 224.197 230.062 224.36 229.241C224.523 228.419 224.927 227.665 225.519 227.073C226.111 226.48 226.866 226.077 227.687 225.914C228.509 225.75 229.361 225.834 230.134 226.155C230.908 226.475 231.57 227.018 232.035 227.714C232.501 228.411 232.749 229.23 232.749 230.067C232.684 231.146 232.21 232.159 231.422 232.899C230.635 233.639 229.594 234.05 228.514 234.048V234.302ZM118.974 76.6316C104.774 83.5025 92.5892 93.9656 83.6447 107.01C73.9975 121.079 68.5104 137.581 67.812 154.625C67.4045 164.573 68.6378 174.47 71.4181 183.931C82.2869 222.628 117.83 251 160 251C210.81 251 252 209.81 252 159C252 108.19 210.81 67 160 67C145.258 67 131.325 70.4676 118.974 76.6316ZM258.884 163.072C258.038 163.079 257.208 162.835 256.501 162.37C255.794 161.905 255.241 161.24 254.912 160.461C254.583 159.681 254.493 158.821 254.654 157.99C254.815 157.159 255.219 156.395 255.815 155.794C256.411 155.193 257.172 154.783 258.001 154.615C258.831 154.447 259.691 154.53 260.474 154.852C261.257 155.174 261.926 155.721 262.397 156.424C262.868 157.127 263.119 157.955 263.119 158.801C263.065 159.861 262.615 160.863 261.857 161.607C261.1 162.351 260.09 162.783 259.029 162.818L258.884 163.072Z" fill="#484848"></path><circle data-v-fcfa0fb4="" class="upgrade-game-wheel__svg-chance upgrade-game-wheel__svg-turning" opacity="1" cx="158.5" cy="158.5" r="90.5" stroke="#FBC04E" stroke-width="4" mask="url(#path-4-inside-1_951_609436)" style="transition: transform 0ms cubic-bezier(0.63, 0, 0, 1) 0s, stroke-dashoffset 0.4s ease 0s; transform: rotate(270deg); stroke-dasharray: 568.628, 568.628; stroke-dashoffset: 568.628;"></circle></svg>