<?xml version="1.0" encoding="UTF-8"?>
<svg id="_图层_1" data-name="图层 1" xmlns="http://www.w3.org/2000/svg" version="1.1" viewBox="0 0 37.3 38.8">
  <defs>
    <style>
      .cls-1 {
        fill: #ffea8d;
      }

      .cls-1, .cls-2, .cls-3, .cls-4, .cls-5, .cls-6, .cls-7, .cls-8, .cls-9 {
        stroke-width: 0px;
      }

      .cls-2 {
        fill: #f47a38;
        fill-opacity: .5;
      }

      .cls-3 {
        fill: #fa7f4b;
      }

      .cls-4 {
        fill: #f2814e;
      }

      .cls-5 {
        fill: #ffbc54;
      }

      .cls-6 {
        fill: #ffed8c;
      }

      .cls-7 {
        fill: #ffdc88;
      }

      .cls-8 {
        fill: #ffba58;
      }

      .cls-9 {
        fill: #fa7b4d;
      }
    </style>
  </defs>
  <path class="cls-4" d="M0,20.2c0,10.3,8.4,18.7,18.7,18.7s18.7-8.4,18.7-18.7h0C37.3,9.9,29,1.5,18.7,1.5c-10.3,0-18.7,8.4-18.7,18.7h0Z"/>
  <path class="cls-7" d="M0,18.7c0,10.3,8.4,18.7,18.7,18.7s18.7-8.4,18.7-18.7S29,0,18.7,0,0,8.4,0,18.7Z"/>
  <path class="cls-5" d="M5.4,18.7c0,7.3,5.9,13.2,13.2,13.2s13.2-5.9,13.2-13.2-5.9-13.2-13.2-13.2-13.2,5.9-13.2,13.2Z"/>
  <path class="cls-9" d="M18.7,3.9c8.2,0,14.8,6.6,14.8,14.8s-6.6,14.8-14.8,14.8S3.9,26.8,3.9,18.7,10.5,3.9,18.7,3.9ZM18.7,5.4c-7.3,0-13.2,5.9-13.2,13.2s5.9,13.2,13.2,13.2,13.2-5.9,13.2-13.2-5.9-13.2-13.2-13.2Z"/>
  <path class="cls-9" d="M18.7,3.9c8.2,0,14.8,6.6,14.8,14.8s-6.6,14.8-14.8,14.8S3.9,26.8,3.9,18.7,10.5,3.9,18.7,3.9ZM18.7,5.4c-7.3,0-13.2,5.9-13.2,13.2s5.9,13.2,13.2,13.2,13.2-5.9,13.2-13.2-5.9-13.2-13.2-13.2Z"/>
  <path class="cls-2" d="M6.7,33c.7-.3,1.5-.7,1.7-1.7.9-3.7,19.9-23.8,19.9-23.8,0,0,0-2.5,1.4-3.9,4.6,3.4,7.6,8.9,7.6,15,0,10.3-8.4,18.7-18.7,18.7s-8.7-1.6-11.9-4.3Z"/>
  <path class="cls-8" d="M28.2,9.5c-.5-.5-.5-1.4,0-1.9,0,0,0-.1,0-.1h0s0,0,0,0c0,0,0,0,0,0,3.1,2.7,5.1,6.7,5.1,11.2,0,8.2-6.6,14.8-14.8,14.8s-6.6-1.2-9.1-3.1c-.3-.2-.3-.6-.2-.9h0c.3-.4.8-.5,1.2-.2,0,0,0,0,0,0,2.2,1.7,5,2.7,8,2.7,7.3,0,13.2-5.9,13.2-13.2s-1.4-6.7-3.6-9.1Z"/>
  <path class="cls-3" d="M17.9,11.7c.3-.4.9-.5,1.3-.2,0,0,.2.1.2.2l2.5,3.4c.1.2.3.3.5.3l4,1.3c.5.2.8.7.6,1.2,0,0,0,.2-.1.3l-2.5,3.4c-.1.2-.2.4-.2.6v4.2c0,.5-.4.9-.9.9-.1,0-.2,0-.3,0l-4-1.3c-.2,0-.4,0-.6,0l-4,1.3c-.5.2-1-.1-1.2-.6,0,0,0-.2,0-.3v-4.2c0-.2,0-.4-.2-.6l-2.5-3.4c-.3-.4-.2-1,.2-1.3,0,0,.2-.1.3-.1l4-1.3c.2,0,.4-.2.5-.3,0,0,2.5-3.4,2.5-3.4Z"/>
  <path class="cls-5" d="M17.9,10.7c.3-.4.9-.5,1.3-.2,0,0,.2.1.2.2l2.5,3.4c.1.2.3.3.5.3l4,1.3c.5.2.8.7.6,1.2,0,0,0,.2-.1.3l-2.5,3.4c-.1.2-.2.4-.2.6v4.2c0,.5-.4.9-.9.9-.1,0-.2,0-.3,0l-4-1.3c-.2,0-.4,0-.6,0l-4,1.3c-.5.2-1-.1-1.2-.6,0,0,0-.2,0-.3v-4.2c0-.2,0-.4-.2-.6l-2.5-3.4c-.3-.4-.2-1,.2-1.3,0,0,.2-.1.3-.1l4-1.3c.2,0,.4-.2.5-.3,0,0,2.5-3.4,2.5-3.4Z"/>
  <path class="cls-1" d="M10.5,17c-.1-.6.2-1.2.8-1.4l3.6-1.1c.2,0,.5-.2.6-.4l2.2-3c.4-.5,1.1-.7,1.7-.3.1,0,.2.2.3.3l2.2,3c.2.2.4.4.6.4l3.6,1.1c.6.2,1,.9.8,1.5,0,0,0,0,0,0-2.3.5-4.9.7-7.7.7s-6-.3-8.5-.9Z"/>
  <path class="cls-6" d="M31.6,21.5c0-.4.5-.7,1-.6,0,0,0,0,0,0,0,0,0,0,0,0,.3.1.5.5.5.8-.9,4.1-3.4,7.6-6.9,9.6-.3.2-.8.1-1-.2h0c-.3-.4-.2-.9.2-1.1,0,0,0,0,0,0,3-1.8,5.3-4.9,6.1-8.5Z"/>
</svg>