<?xml version="1.0" encoding="UTF-8"?>
<svg id="_图层_1" data-name="图层 1" xmlns="http://www.w3.org/2000/svg" version="1.1" viewBox="0 0 37.5 37.5">
  <defs>
    <style>
      .cls-1 {
        fill: #ff9843;
      }

      .cls-1, .cls-2, .cls-3, .cls-4, .cls-5, .cls-6 {
        stroke-width: 0px;
      }

      .cls-2 {
        fill: #fff48a;
      }

      .cls-3 {
        fill: #ffaf45;
      }

      .cls-4 {
        fill: #ffe572;
      }

      .cls-5 {
        fill: #ffc25a;
      }

      .cls-6 {
        fill: #fff;
      }
    </style>
  </defs>
  <path class="cls-2" d="M18.8,0v18.8l-2.9-5.1L18.8,0ZM18.8,18.8v18.8l-2.9-13.7,2.9-5.1Z"/>
  <path class="cls-5" d="M2.5,28.1l10.4-9.4h5.9l-2.9,5.1-13.3,4.3Z"/>
  <path class="cls-3" d="M21.7,23.8l-2.9-5.1h5.9l10.4,9.4-13.3-4.3Z"/>
  <path class="cls-5" d="M18.8,18.8h5.9l10.4-9.4-13.3,4.3-2.9,5.1Z"/>
  <path class="cls-4" d="M18.8,0l-2.9,13.7L9.5,2.4C12.2.9,15.4,0,18.8,0Z"/>
  <path class="cls-5" d="M12.9,18.8H0c0-3.4.9-6.6,2.5-9.3h0s10.4,9.3,10.4,9.3Z"/>
  <path class="cls-3" d="M12.9,18.8L2.5,28.1v-.2C.9,25.2,0,22.1,0,18.8h12.9Z"/>
  <path class="cls-5" d="M15.8,13.7L2.5,9.4h0c1.7-2.9,4.1-5.3,7-6.9l6.3,11.2Z"/>
  <path class="cls-4" d="M18.8,37.5c-3.1,0-6.1-.8-8.7-2.2l5.8-11.5,2.9,13.7Z"/>
  <path class="cls-3" d="M15.8,23.8l-5.8,11.5c-3.1-1.6-5.7-4.1-7.5-7.2h0s13.3-4.3,13.3-4.3Z"/>
  <path class="cls-1" d="M35,28.1h0c-1.6,2.7-3.8,5-6.4,6.6l-6.9-10.9,13.3,4.3Z"/>
  <path class="cls-5" d="M28.6,34.7c-2.9,1.8-6.2,2.8-9.8,2.8l2.9-13.7,6.9,10.9Z"/>
  <path class="cls-3" d="M37.5,18.8h-12.9l10.4-9.4h0c1.6,2.8,2.5,6,2.5,9.4Z"/>
  <path class="cls-1" d="M37.5,18.8c0,3.4-.9,6.6-2.5,9.3h0c0,0-10.4-9.3-10.4-9.3h12.9Z"/>
  <path class="cls-3" d="M35,9.4l-13.3,4.3,6.6-11.1c2.8,1.6,5.1,4,6.7,6.8h0Z"/>
  <path class="cls-5" d="M28.2,2.6l-6.6,11.1L18.8,0c3.5,0,6.7.9,9.5,2.6Z"/>
  <path class="cls-4" d="M21.7,23.8l-2.9,13.7v-18.8l2.9,5.1ZM21.7,13.7l-2.9,5.1V0l2.9,13.7Z"/>
  <path class="cls-6" d="M26.8,18.2c-1-.2-1.7-1-1.9-2,0,0-.1,0-.1,0-.2,1-1,1.7-1.9,2,0,0,0,.1,0,.1,1,.2,1.7,1,1.9,1.9,0,0,.1,0,.1,0,.2-1,1-1.7,1.9-2,0,0,0-.1,0-.1ZM23.6,13c-.8-.2-1.4-.8-1.6-1.6,0,0-.1,0-.1,0-.2.8-.8,1.4-1.6,1.6,0,0,0,.1,0,.1.8.2,1.4.8,1.6,1.6,0,0,.1,0,.1,0,.2-.8.8-1.4,1.6-1.6,0,0,0-.1,0-.1Z"/>
  <path class="cls-4" d="M12.9,18.8h5.9l-2.9-5.1L2.5,9.4l10.4,9.4Z"/>
</svg>